<?xml version="1.0" encoding="UTF-8"?>
<!DOCTYPE svg PUBLIC "-//W3C//DTD SVG 1.1//EN" "http://www.w3.org/Graphics/SVG/1.1/DTD/svg11.dtd">
<svg xmlns="http://www.w3.org/2000/svg" version="1.1" width="403px" height="403px" style="shape-rendering:geometricPrecision; text-rendering:geometricPrecision; image-rendering:optimizeQuality; fill-rule:evenodd; clip-rule:evenodd" xmlns:xlink="http://www.w3.org/1999/xlink">
<g><path style="opacity:1" fill="#f9f9f9" d="M -0.5,-0.5 C 133.833,-0.5 268.167,-0.5 402.5,-0.5C 402.5,133.833 402.5,268.167 402.5,402.5C 268.167,402.5 133.833,402.5 -0.5,402.5C -0.5,268.167 -0.5,133.833 -0.5,-0.5 Z"/></g>
<g><path style="opacity:1" fill="#f8f8f8" d="M 334.5,90.5 C 335.298,92.9663 336.631,94.9663 338.5,96.5C 342.433,104.868 345.767,113.535 348.5,122.5C 351.122,128.674 352.789,135.674 353.5,143.5C 353.699,155.523 353.366,167.523 352.5,179.5C 349.238,198.695 341.072,215.695 328,230.5C 319.257,237.454 310.424,244.288 301.5,251C 289.854,256.883 278.021,262.383 266,267.5C 265.333,268.5 265.333,269.5 266,270.5C 268.442,273.048 270.108,276.048 271,279.5C 271.333,293.5 271.667,307.5 272,321.5C 281.766,325.708 285.099,333.041 282,343.5C 280.343,348.822 277.677,353.489 274,357.5C 270.072,360.883 266.239,364.383 262.5,368C 260.975,369.009 259.308,369.509 257.5,369.5C 257.727,367.067 256.727,365.401 254.5,364.5C 253.167,363.167 251.833,361.833 250.5,360.5C 250.082,359.778 249.416,359.278 248.5,359C 243.167,358.333 237.833,358.333 232.5,359C 231.944,359.383 231.611,359.883 231.5,360.5C 231.5,360.833 231.5,361.167 231.5,361.5C 230.209,362.542 230.209,363.708 231.5,365C 236.916,365.159 242.25,365.826 247.5,367C 249.776,367.874 251.11,369.541 251.5,372C 250.132,373.873 248.466,375.54 246.5,377C 242.296,378.231 238.296,379.731 234.5,381.5C 229.391,381.43 224.391,382.097 219.5,383.5C 207.829,383.667 196.162,383.5 184.5,383C 169.013,377.185 164.68,366.685 171.5,351.5C 173.845,348.823 176.512,346.49 179.5,344.5C 182.648,343.788 185.814,343.121 189,342.5C 191.137,343.638 192.971,345.138 194.5,347C 199.353,347.882 204.019,347.382 208.5,345.5C 212.118,344.462 215.785,343.295 219.5,342C 222.079,340.924 223.746,339.091 224.5,336.5C 226.149,335.527 227.816,334.527 229.5,333.5C 231.055,333.722 232.389,334.389 233.5,335.5C 233.833,335.167 234.167,334.833 234.5,334.5C 233.833,333.833 233.167,333.167 232.5,332.5C 233.615,331.402 233.615,330.235 232.5,329C 234.623,328.009 236.289,326.009 237.5,323C 236.748,322.329 236.414,321.496 236.5,320.5C 239.374,315.446 242.874,310.78 247,306.5C 248.707,304.091 249.54,301.425 249.5,298.5C 246.956,298.104 244.789,298.771 243,300.5C 235.418,311.858 227.251,322.691 218.5,333C 211.89,337.814 204.557,340.48 196.5,341C 194.375,339.263 193.542,337.096 194,334.5C 205.979,318.54 215.312,301.206 222,282.5C 222.667,278.833 222.667,275.167 222,271.5C 220,268.833 218,268.833 216,271.5C 215.667,275.167 215.333,278.833 215,282.5C 209.712,297.369 202.712,311.369 194,324.5C 191.932,326.396 190.099,328.396 188.5,330.5C 186.353,331.932 186.02,333.765 187.5,336C 184.305,336.181 181.305,336.681 178.5,337.5C 173.145,340.855 168.812,345.188 165.5,350.5C 164.503,350.47 163.836,350.97 163.5,352C 161.517,358.239 161.184,364.405 162.5,370.5C 164.075,374.078 166.075,377.411 168.5,380.5C 165.333,382.085 162,383.085 158.5,383.5C 145.665,384.408 133.999,381.408 123.5,374.5C 120.183,371.532 118.183,367.866 117.5,363.5C 117.467,359.131 117.8,354.798 118.5,350.5C 120.239,347.589 122.572,345.089 125.5,343C 127.949,342.275 130.283,341.275 132.5,340C 136.798,338.54 139.798,339.874 141.5,344C 147.721,345.185 153.388,344.018 158.5,340.5C 159.458,340.047 160.292,339.381 161,338.5C 161.817,332.984 161.651,327.65 160.5,322.5C 154.102,309.688 148.769,296.354 144.5,282.5C 146.074,280.898 146.741,278.898 146.5,276.5C 143.531,275.671 140.531,275.505 137.5,276C 137.957,276.414 138.291,276.914 138.5,277.5C 137.302,277.94 136.135,278.273 135,278.5C 134.42,281.547 134.753,281.881 136,279.5C 136.167,280.167 136.333,280.833 136.5,281.5C 136.067,284.676 135.734,287.843 135.5,291C 140.519,299.152 138.519,301.319 129.5,297.5C 129.709,296.914 130.043,296.414 130.5,296C 129.773,294.601 129.273,293.101 129,291.5C 128.724,286.185 128.558,281.018 128.5,276C 128.615,274.105 129.282,272.438 130.5,271C 129.922,269.583 128.922,268.75 127.5,268.5C 127.033,265.703 125.367,264.369 122.5,264.5C 121.624,264.631 120.957,264.298 120.5,263.5C 123.167,262.833 125.833,262.167 128.5,261.5C 125.5,260.833 122.5,260.167 119.5,259.5C 120.025,258.808 120.692,258.308 121.5,258C 118.5,257.333 115.5,257.333 112.5,258C 114.5,258.333 116.5,258.667 118.5,259C 118.167,259.333 117.833,259.667 117.5,260C 114.707,259.222 111.874,259.389 109,260.5C 108.167,260.333 107.333,260.167 106.5,260C 106.07,259.08 105.736,258.247 105.5,257.5C 103.737,258.954 102.403,258.62 101.5,256.5C 99.2573,255.526 96.924,255.192 94.5,255.5C 84.707,251.893 76.0403,246.393 68.5,239C 64.5783,235.749 61.4117,231.916 59,227.5C 55.9937,219.49 52.9937,211.49 50,203.5C 49.2575,189.479 49.4242,175.479 50.5,161.5C 51.2216,161.082 51.7216,160.416 52,159.5C 53.4281,146.927 55.9281,134.593 59.5,122.5C 61.062,116.916 63.2287,111.583 66,106.5C 67.3007,112.156 70.634,115.823 76,117.5C 92.5112,111.803 108.678,105.47 124.5,98.5C 129.938,91.9017 129.271,85.735 122.5,80C 119.854,79.5026 117.187,79.3359 114.5,79.5C 114.5,78.5 114.5,77.5 114.5,76.5C 115.873,76.6567 117.207,76.49 118.5,76C 113.798,75.8283 109.132,75.3283 104.5,74.5C 103.469,73.2997 102.635,71.9663 102,70.5C 101.549,72.9288 100.715,73.0955 99.5,71C 100.167,70.3333 100.833,69.6667 101.5,69C 100.049,69.2626 98.7161,69.0959 97.5,68.5C 98.4318,66.2046 99.2652,63.8713 100,61.5C 101.444,59.8446 103.278,59.178 105.5,59.5C 105.5,60.8333 105.5,62.1667 105.5,63.5C 115.167,63.5 124.833,63.5 134.5,63.5C 134.666,58.4889 134.499,53.4889 134,48.5C 128.054,45.8489 128.554,45.0156 135.5,46C 137.088,48.043 138.421,47.8764 139.5,45.5C 137.469,43.8253 135.469,42.1586 133.5,40.5C 135.06,40.5191 136.56,40.8524 138,41.5C 138.808,39.8518 140.641,38.6851 143.5,38C 147.465,37.8923 151.132,37.059 154.5,35.5C 161.078,33.9874 167.744,32.654 174.5,31.5C 179.453,31.8772 184.119,31.2105 188.5,29.5C 206.504,29.133 224.504,28.9664 242.5,29C 257.338,32.0838 271.338,37.4171 284.5,45C 294.539,50.6799 304.205,56.8466 313.5,63.5C 317.457,67.9585 321.624,72.2919 326,76.5C 328.934,81.1825 331.768,85.8492 334.5,90.5 Z"/></g>
<g><path style="opacity:1" fill="#454545" d="M 158.5,27.5 C 153.613,30.2331 148.279,31.5664 142.5,31.5C 147.679,30.0048 153.012,28.6714 158.5,27.5 Z"/></g>
<g><path style="opacity:1" fill="#0a0a0a" d="M 114.5,79.5 C 117.187,79.3359 119.854,79.5026 122.5,80C 129.271,85.735 129.938,91.9017 124.5,98.5C 108.678,105.47 92.5112,111.803 76,117.5C 70.634,115.823 67.3007,112.156 66,106.5C 63.2287,111.583 61.062,116.916 59.5,122.5C 58.7515,121.469 58.0848,120.302 57.5,119C 57.8333,118.667 58.1667,118.333 58.5,118C 57.2559,117.544 56.4226,118.044 56,119.5C 55.9822,117.203 56.1489,114.869 56.5,112.5C 57.1667,110.833 57.8333,109.167 58.5,107.5C 60.2451,105.967 61.2451,103.967 61.5,101.5C 62.0102,98.3257 63.6769,95.9923 66.5,94.5C 67.9084,96.1316 69.4084,97.7982 71,99.5C 72.3333,98.1667 73.6667,98.1667 75,99.5C 76.3402,98.1322 77.6736,96.7989 79,95.5C 81.9939,95.3609 85.1606,94.8609 88.5,94C 86.065,93.9252 85.3984,93.0919 86.5,91.5C 91.5686,89.6506 96.5686,87.6506 101.5,85.5C 104.346,85.4484 106.68,84.4484 108.5,82.5C 110.819,82.0075 112.819,81.0075 114.5,79.5 Z"/></g>
<g><path style="opacity:1" fill="#0b0b0b" d="M 224.5,90.5 C 226.721,93.4467 229.721,95.1134 233.5,95.5C 238.709,97.9364 244.042,100.103 249.5,102C 254.339,106.675 254.672,111.842 250.5,117.5C 246.014,123.275 240.681,124.108 234.5,120C 220.777,113.383 207.11,106.883 193.5,100.5C 190.944,97.3323 189.944,93.6656 190.5,89.5C 191.837,84.8295 194.837,81.8295 199.5,80.5C 208.132,83.0753 216.466,86.4086 224.5,90.5 Z"/></g>
<g><path style="opacity:1" fill="#171717" d="M 346.5,98.5 C 346.427,100.027 347.094,101.027 348.5,101.5C 350.835,108.855 353.169,116.188 355.5,123.5C 353.793,124.873 352.46,126.539 351.5,128.5C 350.797,126.371 349.797,124.371 348.5,122.5C 345.767,113.535 342.433,104.868 338.5,96.5C 338.155,93.8021 336.822,91.8021 334.5,90.5C 331.768,85.8492 328.934,81.1825 326,76.5C 321.624,72.2919 317.457,67.9585 313.5,63.5C 304.205,56.8466 294.539,50.6799 284.5,45C 271.338,37.4171 257.338,32.0838 242.5,29C 224.504,28.9664 206.504,29.133 188.5,29.5C 183.586,29.3618 178.919,30.0285 174.5,31.5C 167.744,32.654 161.078,33.9874 154.5,35.5C 146.633,35.9421 138.967,37.4421 131.5,40C 130.944,40.3826 130.611,40.8826 130.5,41.5C 120.154,46.8551 109.821,52.1884 99.5,57.5C 99.6495,58.552 99.4828,59.552 99,60.5C 91.0201,70.8177 83.0201,81.151 75,91.5C 74.2115,93.1647 73.8782,94.8314 74,96.5C 78.0999,94.5255 82.2665,92.8588 86.5,91.5C 85.3984,93.0919 86.065,93.9252 88.5,94C 85.1606,94.8609 81.9939,95.3609 79,95.5C 77.6736,96.7989 76.3402,98.1322 75,99.5C 73.6667,98.1667 72.3333,98.1667 71,99.5C 69.4084,97.7982 67.9084,96.1316 66.5,94.5C 69.5637,88.7428 73.397,83.4094 78,78.5C 80.7765,75.282 82.7765,71.6153 84,67.5C 85.2002,65.5884 86.8669,64.2551 89,63.5C 93.031,54.4748 99.8644,48.6415 109.5,46C 118.769,37.42 129.769,32.5867 142.5,31.5C 148.279,31.5664 153.613,30.2331 158.5,27.5C 189.842,22.1118 221.342,21.1118 253,24.5C 262.978,28.2721 272.811,32.4388 282.5,37C 294.348,44.0881 306.015,51.4214 317.5,59C 329.237,70.6394 338.904,83.806 346.5,98.5 Z"/></g>
<g><path style="opacity:1" fill="#757575" d="M 108.5,82.5 C 106.68,84.4484 104.346,85.4484 101.5,85.5C 103.509,83.9348 105.843,82.9348 108.5,82.5 Z"/></g>
<g><path style="opacity:1" fill="#f1f1f1" d="M 133.5,40.5 C 135.469,42.1586 137.469,43.8253 139.5,45.5C 138.421,47.8764 137.088,48.043 135.5,46C 128.554,45.0156 128.054,45.8489 134,48.5C 134.499,53.4889 134.666,58.4889 134.5,63.5C 124.833,63.5 115.167,63.5 105.5,63.5C 105.5,62.1667 105.5,60.8333 105.5,59.5C 103.278,59.178 101.444,59.8446 100,61.5C 99.2652,63.8713 98.4318,66.2046 97.5,68.5C 98.7161,69.0959 100.049,69.2626 101.5,69C 100.833,69.6667 100.167,70.3333 99.5,71C 100.715,73.0955 101.549,72.9288 102,70.5C 102.635,71.9663 103.469,73.2997 104.5,74.5C 109.132,75.3283 113.798,75.8283 118.5,76C 117.207,76.49 115.873,76.6567 114.5,76.5C 114.5,77.5 114.5,78.5 114.5,79.5C 112.819,81.0075 110.819,82.0075 108.5,82.5C 105.843,82.9348 103.509,83.9348 101.5,85.5C 96.5686,87.6506 91.5686,89.6506 86.5,91.5C 82.2665,92.8588 78.0999,94.5255 74,96.5C 73.8782,94.8314 74.2115,93.1647 75,91.5C 83.0201,81.151 91.0201,70.8177 99,60.5C 99.4828,59.552 99.6495,58.552 99.5,57.5C 109.821,52.1884 120.154,46.8551 130.5,41.5C 131.609,41.4431 132.609,41.1098 133.5,40.5 Z"/></g>
<g><path style="opacity:1" fill="#b8b8b8" d="M 154.5,35.5 C 151.132,37.059 147.465,37.8923 143.5,38C 140.641,38.6851 138.808,39.8518 138,41.5C 136.56,40.8524 135.06,40.5191 133.5,40.5C 132.609,41.1098 131.609,41.4431 130.5,41.5C 130.611,40.8826 130.944,40.3826 131.5,40C 138.967,37.4421 146.633,35.9421 154.5,35.5 Z"/></g>
<g><path style="opacity:1" fill="#9b9b9b" d="M 188.5,29.5 C 184.119,31.2105 179.453,31.8772 174.5,31.5C 178.919,30.0285 183.586,29.3618 188.5,29.5 Z"/></g>
<g><path style="opacity:1" fill="#959595" d="M 334.5,90.5 C 336.822,91.8021 338.155,93.8021 338.5,96.5C 336.631,94.9663 335.298,92.9663 334.5,90.5 Z"/></g>
<g><path style="opacity:1" fill="#4d4d4d" d="M 224.5,90.5 C 227.78,91.8068 230.78,93.4735 233.5,95.5C 229.721,95.1134 226.721,93.4467 224.5,90.5 Z"/></g>
<g><path style="opacity:1" fill="#b2b2b2" d="M 190.5,89.5 C 189.944,93.6656 190.944,97.3323 193.5,100.5C 192.417,100.461 191.417,100.127 190.5,99.5C 189.194,96.0202 189.194,92.6868 190.5,89.5 Z"/></g>
<g><path style="opacity:1" fill="#727272" d="M 346.5,98.5 C 347.906,98.9731 348.573,99.9731 348.5,101.5C 347.094,101.027 346.427,100.027 346.5,98.5 Z"/></g>
<g><path style="opacity:1" fill="#5f5f5f" d="M 61.5,101.5 C 61.2451,103.967 60.2451,105.967 58.5,107.5C 58.7549,105.033 59.7549,103.033 61.5,101.5 Z"/></g>
<g><path style="opacity:1" fill="#b9b9b9" d="M 348.5,122.5 C 349.797,124.371 350.797,126.371 351.5,128.5C 352.268,129.263 352.768,130.263 353,131.5C 353.499,135.486 353.666,139.486 353.5,143.5C 352.789,135.674 351.122,128.674 348.5,122.5 Z"/></g>
<g><path style="opacity:1" fill="#0b0b0b" d="M 101.5,143.5 C 101.244,139.731 101.577,136.064 102.5,132.5C 108.162,125.106 115.162,123.606 123.5,128C 131.251,137.826 129.918,146.159 119.5,153C 110.22,155.862 104.22,152.695 101.5,143.5 Z"/></g>
<g><path style="opacity:1" fill="#0e0e0e" d="M 200.5,126.5 C 203.187,126.336 205.854,126.503 208.5,127C 211.579,129.155 214.413,131.655 217,134.5C 219.657,144.257 216.49,151.091 207.5,155C 192.811,154.954 187.644,147.787 192,133.5C 194.18,130.333 197.014,127.999 200.5,126.5 Z"/></g>
<g><path style="opacity:1" fill="#3f3f3f" d="M 355.5,123.5 C 356.79,124.058 357.623,125.058 358,126.5C 358.953,129.432 359.453,132.432 359.5,135.5C 358.897,133.81 357.897,132.31 356.5,131C 357.022,130.439 357.355,129.772 357.5,129C 356.68,127.2 356.014,125.366 355.5,123.5 Z"/></g>
<g><path style="opacity:1" fill="#b9b9b9" d="M 102.5,132.5 C 101.577,136.064 101.244,139.731 101.5,143.5C 100.679,140.359 100.179,137.025 100,133.5C 99.3457,134.696 98.8457,134.696 98.5,133.5C 99.6888,132.571 101.022,132.238 102.5,132.5 Z"/></g>
<g><path style="opacity:1" fill="#181818" d="M 56.5,112.5 C 56.1489,114.869 55.9822,117.203 56,119.5C 56.4226,118.044 57.2559,117.544 58.5,118C 58.1667,118.333 57.8333,118.667 57.5,119C 58.0848,120.302 58.7515,121.469 59.5,122.5C 55.9281,134.593 53.4281,146.927 52,159.5C 51.7216,160.416 51.2216,161.082 50.5,161.5C 50.6646,158.482 50.498,155.482 50,152.5C 49.2917,151.619 48.4584,150.953 47.5,150.5C 48.3745,137.203 51.3745,124.536 56.5,112.5 Z"/></g>
<g><path style="opacity:1" fill="#171717" d="M 355.5,123.5 C 356.014,125.366 356.68,127.2 357.5,129C 357.355,129.772 357.022,130.439 356.5,131C 357.897,132.31 358.897,133.81 359.5,135.5C 361.239,152.181 360.573,168.847 357.5,185.5C 355.914,186.413 354.414,186.413 353,185.5C 352.505,183.527 352.338,181.527 352.5,179.5C 353.366,167.523 353.699,155.523 353.5,143.5C 353.666,139.486 353.499,135.486 353,131.5C 352.768,130.263 352.268,129.263 351.5,128.5C 352.46,126.539 353.793,124.873 355.5,123.5 Z"/></g>
<g><path style="opacity:1" fill="#212121" d="M 148.5,181.5 C 150.167,181.5 151.833,181.5 153.5,181.5C 153.616,184.91 151.95,186.244 148.5,185.5C 148.5,184.167 148.5,182.833 148.5,181.5 Z"/></g>
<g><path style="opacity:1" fill="#1a1a1a" d="M 161.5,181.5 C 162.5,181.5 163.5,181.5 164.5,181.5C 164.5,182.833 164.5,184.167 164.5,185.5C 160.965,185.663 159.965,184.33 161.5,181.5 Z"/></g>
<g><path style="opacity:1" fill="#636363" d="M 161.5,181.5 C 162.568,180.566 163.901,180.232 165.5,180.5C 165.784,182.415 165.451,184.081 164.5,185.5C 164.5,184.167 164.5,182.833 164.5,181.5C 163.5,181.5 162.5,181.5 161.5,181.5 Z"/></g>
<g><path style="opacity:1" fill="#1d1d1d" d="M 146.5,218.5 C 154.167,218.5 161.833,218.5 169.5,218.5C 169.5,219.5 169.5,220.5 169.5,221.5C 161.833,221.5 154.167,221.5 146.5,221.5C 146.5,220.5 146.5,219.5 146.5,218.5 Z"/></g>
<g><path style="opacity:1" fill="#e0e0e0" d="M 94.5,255.5 C 96.924,255.192 99.2573,255.526 101.5,256.5C 102.403,258.62 103.737,258.954 105.5,257.5C 105.736,258.247 106.07,259.08 106.5,260C 107.333,260.167 108.167,260.333 109,260.5C 111.874,259.389 114.707,259.222 117.5,260C 117.833,259.667 118.167,259.333 118.5,259C 116.5,258.667 114.5,258.333 112.5,258C 115.5,257.333 118.5,257.333 121.5,258C 120.692,258.308 120.025,258.808 119.5,259.5C 122.5,260.167 125.5,260.833 128.5,261.5C 125.833,262.167 123.167,262.833 120.5,263.5C 120.957,264.298 121.624,264.631 122.5,264.5C 122.083,265.124 121.416,265.457 120.5,265.5C 111.134,263.498 102.467,260.164 94.5,255.5 Z"/></g>
<g><path style="opacity:1" fill="#181818" d="M 352.5,179.5 C 352.338,181.527 352.505,183.527 353,185.5C 354.414,186.413 355.914,186.413 357.5,185.5C 354.484,198.927 349.651,211.594 343,223.5C 333.942,233.393 324.109,242.393 313.5,250.5C 301.521,258.905 288.688,265.572 275,270.5C 276.147,274.309 277.147,278.309 278,282.5C 278.167,294.514 278.667,306.514 279.5,318.5C 288.208,324.542 291.041,332.875 288,343.5C 283.137,359.526 272.97,370.526 257.5,376.5C 250.902,381.648 243.569,385.315 235.5,387.5C 234.438,386.425 234.438,385.425 235.5,384.5C 237.403,384.694 239.237,384.694 241,384.5C 241.833,383 243,381.833 244.5,381C 241.151,380.612 237.817,380.779 234.5,381.5C 238.296,379.731 242.296,378.231 246.5,377C 248.466,375.54 250.132,373.873 251.5,372C 251.11,369.541 249.776,367.874 247.5,367C 242.25,365.826 236.916,365.159 231.5,365C 230.209,363.708 230.209,362.542 231.5,361.5C 232.5,361.5 233.5,361.5 234.5,361.5C 234.5,362.5 234.5,363.5 234.5,364.5C 239.459,364.735 244.292,364.735 249,364.5C 250.585,365.376 251.585,366.709 252,368.5C 252.48,366.867 253.313,365.534 254.5,364.5C 256.727,365.401 257.727,367.067 257.5,369.5C 259.308,369.509 260.975,369.009 262.5,368C 266.239,364.383 270.072,360.883 274,357.5C 277.677,353.489 280.343,348.822 282,343.5C 285.099,333.041 281.766,325.708 272,321.5C 271.667,307.5 271.333,293.5 271,279.5C 270.108,276.048 268.442,273.048 266,270.5C 265.333,269.5 265.333,268.5 266,267.5C 278.021,262.383 289.854,256.883 301.5,251C 310.424,244.288 319.257,237.454 328,230.5C 341.072,215.695 349.238,198.695 352.5,179.5 Z"/></g>
<g><path style="opacity:1" fill="#979797" d="M 117.5,271.5 C 118.833,271.5 120.167,271.5 121.5,271.5C 121.5,280.833 121.5,290.167 121.5,299.5C 120.507,290.682 120.173,281.682 120.5,272.5C 119.209,272.737 118.209,272.404 117.5,271.5 Z"/></g>
<g><path style="opacity:1" fill="#eeeeee" d="M 127.5,268.5 C 128.922,268.75 129.922,269.583 130.5,271C 129.282,272.438 128.615,274.105 128.5,276C 128.558,281.018 128.724,286.185 129,291.5C 129.273,293.101 129.773,294.601 130.5,296C 130.043,296.414 129.709,296.914 129.5,297.5C 138.519,301.319 140.519,299.152 135.5,291C 135.734,287.843 136.067,284.676 136.5,281.5C 136.333,280.833 136.167,280.167 136,279.5C 134.753,281.881 134.42,281.547 135,278.5C 136.135,278.273 137.302,277.94 138.5,277.5C 138.291,276.914 137.957,276.414 137.5,276C 140.531,275.505 143.531,275.671 146.5,276.5C 146.741,278.898 146.074,280.898 144.5,282.5C 143.009,279.909 140.675,278.909 137.5,279.5C 138.785,287.077 140.952,294.41 144,301.5C 149.297,309.937 152.797,319.103 154.5,329C 155.72,335.113 153.22,338.279 147,338.5C 144.845,337.421 142.845,336.087 141,334.5C 128.87,314.222 124.37,292.222 127.5,268.5 Z"/></g>
<g><path style="opacity:1" fill="#d4d4d4" d="M 236.5,320.5 C 236.414,321.496 236.748,322.329 237.5,323C 236.289,326.009 234.623,328.009 232.5,329C 233.615,330.235 233.615,331.402 232.5,332.5C 233.167,333.167 233.833,333.833 234.5,334.5C 234.167,334.833 233.833,335.167 233.5,335.5C 232.389,334.389 231.055,333.722 229.5,333.5C 227.816,334.527 226.149,335.527 224.5,336.5C 228.122,330.878 232.122,325.545 236.5,320.5 Z"/></g>
<g><path style="opacity:1" fill="#525252" d="M 131.5,330.5 C 132.097,330.735 132.43,331.235 132.5,332C 130.848,335.326 128.181,336.826 124.5,336.5C 127.444,335.223 129.777,333.223 131.5,330.5 Z"/></g>
<g><path style="opacity:1" fill="#b3b3b3" d="M 224.5,336.5 C 223.746,339.091 222.079,340.924 219.5,342C 215.785,343.295 212.118,344.462 208.5,345.5C 214.171,343.261 219.504,340.261 224.5,336.5 Z"/></g>
<g><path style="opacity:1" fill="#161616" d="M 47.5,150.5 C 48.4584,150.953 49.2917,151.619 50,152.5C 50.498,155.482 50.6646,158.482 50.5,161.5C 49.4242,175.479 49.2575,189.479 50,203.5C 52.9937,211.49 55.9937,219.49 59,227.5C 61.4117,231.916 64.5783,235.749 68.5,239C 76.0403,246.393 84.707,251.893 94.5,255.5C 102.467,260.164 111.134,263.498 120.5,265.5C 121.416,265.457 122.083,265.124 122.5,264.5C 125.367,264.369 127.033,265.703 127.5,268.5C 124.37,292.222 128.87,314.222 141,334.5C 142.845,336.087 144.845,337.421 147,338.5C 153.22,338.279 155.72,335.113 154.5,329C 152.797,319.103 149.297,309.937 144,301.5C 140.952,294.41 138.785,287.077 137.5,279.5C 140.675,278.909 143.009,279.909 144.5,282.5C 148.769,296.354 154.102,309.688 160.5,322.5C 161.022,328.748 160.355,334.748 158.5,340.5C 153.388,344.018 147.721,345.185 141.5,344C 139.798,339.874 136.798,338.54 132.5,340C 130.283,341.275 127.949,342.275 125.5,343C 122.572,345.089 120.239,347.589 118.5,350.5C 116.967,352.634 116.3,355.134 116.5,358C 116.506,360.033 116.839,361.866 117.5,363.5C 118.183,367.866 120.183,371.532 123.5,374.5C 133.999,381.408 145.665,384.408 158.5,383.5C 162,383.085 165.333,382.085 168.5,380.5C 166.075,377.411 164.075,374.078 162.5,370.5C 162.067,363.574 163.067,356.907 165.5,350.5C 168.812,345.188 173.145,340.855 178.5,337.5C 181.833,337.5 185.167,337.5 188.5,337.5C 187.454,335.118 187.454,332.785 188.5,330.5C 190.099,328.396 191.932,326.396 194,324.5C 202.712,311.369 209.712,297.369 215,282.5C 215.333,278.833 215.667,275.167 216,271.5C 218,268.833 220,268.833 222,271.5C 222.667,275.167 222.667,278.833 222,282.5C 215.312,301.206 205.979,318.54 194,334.5C 193.542,337.096 194.375,339.263 196.5,341C 204.557,340.48 211.89,337.814 218.5,333C 227.251,322.691 235.418,311.858 243,300.5C 244.789,298.771 246.956,298.104 249.5,298.5C 249.54,301.425 248.707,304.091 247,306.5C 242.874,310.78 239.374,315.446 236.5,320.5C 232.122,325.545 228.122,330.878 224.5,336.5C 219.504,340.261 214.171,343.261 208.5,345.5C 204.019,347.382 199.353,347.882 194.5,347C 192.971,345.138 191.137,343.638 189,342.5C 185.814,343.121 182.648,343.788 179.5,344.5C 176.512,346.49 173.845,348.823 171.5,351.5C 164.68,366.685 169.013,377.185 184.5,383C 196.162,383.5 207.829,383.667 219.5,383.5C 211.016,384.493 202.349,384.826 193.5,384.5C 193.646,386.942 192.813,387.609 191,386.5C 190.692,387.308 190.192,387.975 189.5,388.5C 187.401,386.466 185.068,386.132 182.5,387.5C 183.729,388.281 185.062,388.781 186.5,389C 197.828,389.5 209.162,389.667 220.5,389.5C 220.5,389.833 220.5,390.167 220.5,390.5C 208.495,390.667 196.495,390.5 184.5,390C 181.603,388.635 178.77,387.135 176,385.5C 163.206,389.94 150.039,390.774 136.5,388C 113.18,380.631 106.013,365.797 115,343.5C 118.068,340.917 121.235,338.584 124.5,336.5C 128.181,336.826 130.848,335.326 132.5,332C 132.43,331.235 132.097,330.735 131.5,330.5C 127.305,320.443 123.971,310.11 121.5,299.5C 121.5,290.167 121.5,280.833 121.5,271.5C 120.167,271.5 118.833,271.5 117.5,271.5C 105.184,267.324 93.1837,262.491 81.5,257C 71.3633,250.674 62.5299,242.841 55,233.5C 51.0682,223.963 47.4015,214.297 44,204.5C 41.45,186.127 42.6167,168.127 47.5,150.5 Z"/></g>
<g><path style="opacity:1" fill="#919191" d="M 188.5,330.5 C 187.454,332.785 187.454,335.118 188.5,337.5C 185.167,337.5 181.833,337.5 178.5,337.5C 181.305,336.681 184.305,336.181 187.5,336C 186.02,333.765 186.353,331.932 188.5,330.5 Z"/></g>
<g><path style="opacity:1" fill="#9e9e9e" d="M 160.5,322.5 C 161.651,327.65 161.817,332.984 161,338.5C 160.292,339.381 159.458,340.047 158.5,340.5C 160.355,334.748 161.022,328.748 160.5,322.5 Z"/></g>
<g><path style="opacity:1" fill="#a5a5a5" d="M 118.5,350.5 C 117.8,354.798 117.467,359.131 117.5,363.5C 116.839,361.866 116.506,360.033 116.5,358C 116.3,355.134 116.967,352.634 118.5,350.5 Z"/></g>
<g><path style="opacity:1" fill="#868686" d="M 250.5,360.5 C 244.146,359.266 237.812,359.266 231.5,360.5C 231.611,359.883 231.944,359.383 232.5,359C 237.833,358.333 243.167,358.333 248.5,359C 249.416,359.278 250.082,359.778 250.5,360.5 Z"/></g>
<g><path style="opacity:1" fill="#0c0c0c" d="M 250.5,360.5 C 251.833,361.833 253.167,363.167 254.5,364.5C 253.313,365.534 252.48,366.867 252,368.5C 251.585,366.709 250.585,365.376 249,364.5C 244.292,364.735 239.459,364.735 234.5,364.5C 234.5,363.5 234.5,362.5 234.5,361.5C 233.5,361.5 232.5,361.5 231.5,361.5C 231.5,361.167 231.5,360.833 231.5,360.5C 237.812,359.266 244.146,359.266 250.5,360.5 Z"/></g>
<g><path style="opacity:1" fill="#545454" d="M 165.5,350.5 C 163.067,356.907 162.067,363.574 162.5,370.5C 161.184,364.405 161.517,358.239 163.5,352C 163.836,350.97 164.503,350.47 165.5,350.5 Z"/></g>
<g><path style="opacity:1" fill="#0a0a0a" d="M 235.5,387.5 C 235.167,387.5 234.833,387.5 234.5,387.5C 229.784,387.846 225.117,388.513 220.5,389.5C 209.162,389.667 197.828,389.5 186.5,389C 185.062,388.781 183.729,388.281 182.5,387.5C 185.068,386.132 187.401,386.466 189.5,388.5C 190.192,387.975 190.692,387.308 191,386.5C 192.813,387.609 193.646,386.942 193.5,384.5C 202.349,384.826 211.016,384.493 219.5,383.5C 224.391,382.097 229.391,381.43 234.5,381.5C 237.817,380.779 241.151,380.612 244.5,381C 243,381.833 241.833,383 241,384.5C 239.237,384.694 237.403,384.694 235.5,384.5C 234.438,385.425 234.438,386.425 235.5,387.5 Z"/></g>
<g><path style="opacity:1" fill="#aaaaaa" d="M 234.5,387.5 C 231.702,388.17 229.202,389.503 227,391.5C 224.959,390.577 222.792,390.244 220.5,390.5C 220.5,390.167 220.5,389.833 220.5,389.5C 225.117,388.513 229.784,387.846 234.5,387.5 Z"/></g>
</svg>
